<svg width="48" height="49" viewBox="0 0 48 49" fill = "#d3bbffff" xmlns="http://www.w3.org/2000/svg">
<path d="M31.34 8.5H28V6.5C28 5.4 27.1 4.5 26 4.5H22C20.9 4.5 20 5.4 20 6.5V8.5H16.66C15.2 8.5 14 9.7 14 11.16V41.82C14 43.3 15.2 44.5 16.68 44.5H31.32C32.8 44.5 34 43.3 34 41.84V11.16C34 9.7 32.8 8.5 31.34 8.5ZM29.22 26.98L23.88 36.98C23.4 37.88 22 37.54 22 36.5V29.5H19.66C18.9 29.5 18.42 28.7 18.78 28.02L24.12 18.02C24.6 17.12 26 17.46 26 18.5V25.5H28.34C29.08 25.5 29.58 26.3 29.22 26.98Z" fill = "#d3bbffff"/>
</svg>
