<svg xmlns="http://www.w3.org/2000/svg" width="20" height="20" fill = "#d3bbffff"><g clip-path="url(#a)"><path fill = "#d3bbffff" d="M15.156 19.167c.55 0 1.024-.191 1.421-.573.382-.398.573-.871.573-1.421V2.827c0-.55-.191-1.016-.573-1.398a1.94 1.94 0 0 0-1.42-.596H7.914L2.85 5.898v11.275c0 .55.199 1.024.596 1.42.382.383.848.574 1.398.574h10.312ZM9.06 7.044V2.827h6.096v14.346H4.844V7.043H9.06Zm6.096-4.217v4.446-4.446 14.346V2.827Z"/></g><defs><clipPath id="a"><path fill = "#d3bbffff" d="M0 0h20v20H0z"/></clipPath></defs></svg>