<svg width="48" height="49" viewBox="0 0 48 49" fill = "#d3bbffff" xmlns="http://www.w3.org/2000/svg">
<path d="M36 30.5V38.5C36 39.6 35.1 40.5 34 40.5H10C8.9 40.5 8 39.6 8 38.5V14.5C8 13.4 8.9 12.5 10 12.5H16.04C17.14 12.5 18.04 11.6 18.04 10.5C18.04 9.4 17.14 8.5 16.04 8.5H8C5.8 8.5 4 10.3 4 12.5V40.5C4 42.7 5.8 44.5 8 44.5H36C38.2 44.5 40 42.7 40 40.5V30.5C40 29.4 39.1 28.5 38 28.5C36.9 28.5 36 29.4 36 30.5ZM31 36.5H13.04C12.2 36.5 11.74 35.54 12.26 34.88L15.74 30.42C16.14 29.92 16.9 29.9 17.3 30.4L20.42 34.16L25.12 28.12C25.52 27.6 26.32 27.6 26.7 28.14L31.8 34.92C32.3 35.56 31.82 36.5 31 36.5V36.5ZM38.6 18.28C39.56 16.74 40.1 14.94 39.98 12.96C39.72 8.66 36.3 5.02 32.04 4.56C26.6 3.96 22 8.18 22 13.5C22 18.48 26.02 22.5 30.98 22.5C32.74 22.5 34.38 21.98 35.76 21.1L40.58 25.92C41.36 26.7 42.64 26.7 43.42 25.92C44.2 25.14 44.2 23.86 43.42 23.08L38.6 18.28ZM31 18.5C28.24 18.5 26 16.26 26 13.5C26 10.74 28.24 8.5 31 8.5C33.76 8.5 36 10.74 36 13.5C36 16.26 33.76 18.5 31 18.5Z" fill = "#d3bbffff"/>
</svg>
