<svg width="48" height="48" viewBox="0 0 48 48" fill = "#d3bbffff" xmlns="http://www.w3.org/2000/svg">
<path d="M40 4H16C13.8 4 12 5.8 12 8V32C12 34.2 13.8 36 16 36H40C42.2 36 44 34.2 44 32V8C44 5.8 42.2 4 40 4ZM23 19C23 20.66 21.66 22 20 22H18V24.5C18 25.32 17.32 26 16.5 26C15.68 26 15 25.32 15 24.5V16C15 14.9 15.9 14 17 14H20C21.66 14 23 15.34 23 17V19ZM33 23C33 24.66 31.66 26 30 26H26C25.44 26 25 25.56 25 25V15C25 14.44 25.44 14 26 14H30C31.66 14 33 15.34 33 17V23ZM41 15.5C41 16.32 40.32 17 39.5 17H38V19H39.5C40.32 19 41 19.68 41 20.5C41 21.32 40.32 22 39.5 22H38V24.5C38 25.32 37.32 26 36.5 26C35.68 26 35 25.32 35 24.5V16C35 14.9 35.9 14 37 14H39.5C40.32 14 41 14.68 41 15.5ZM18 19H20V17H18V19ZM6 12C4.9 12 4 12.9 4 14V40C4 42.2 5.8 44 8 44H34C35.1 44 36 43.1 36 42C36 40.9 35.1 40 34 40H10C8.9 40 8 39.1 8 38V14C8 12.9 7.1 12 6 12ZM28 23H30V17H28V23Z" fill = "#d3bbffff"/>
</svg>
