<svg xmlns="http://www.w3.org/2000/svg" width="20" height="20" fill = "#d3bbffff"><path fill = "#d3bbffff" d="M10 18.158c2.185 0 4.064-.74 5.637-2.223 1.559-1.482 2.392-3.307 2.498-5.477h-1.993c-.123 1.604-.772 2.957-1.948 4.057-1.177 1.1-2.575 1.65-4.194 1.65-1.696 0-3.147-.596-4.354-1.788-1.207-1.207-1.81-2.666-1.81-4.377 0-1.711.603-3.162 1.81-4.354C6.853 4.439 8.304 3.836 10 3.836c.963 0 1.864.206 2.704.618a5.957 5.957 0 0 1 2.108 1.696h-2.337v1.833h5.638V2.346h-1.81V4.82a8.026 8.026 0 0 0-2.774-2.177A7.967 7.967 0 0 0 10 1.842c-1.115 0-2.17.214-3.162.641a8.22 8.22 0 0 0-2.59 1.742 8.22 8.22 0 0 0-1.742 2.59A7.729 7.729 0 0 0 1.842 10c0 1.13.221 2.192.664 3.185a8.22 8.22 0 0 0 1.742 2.59 8.222 8.222 0 0 0 2.59 1.742 7.91 7.91 0 0 0 3.162.641ZM7.617 13.53l3.3-3.3V5.51H9.083v3.964L6.31 12.246l1.307 1.283Z"/></svg>